<svg width="197" height="64" viewBox="0 0 197 64" fill="none" xmlns="http://www.w3.org/2000/svg">
<g filter="url(#filter0_d_6_326)">
<path d="M186 56H11C7.15 56 4 52.85 4 49V7C4 3.15 7.15 0 11 0H186C189.85 0 193 3.15 193 7V49C193 52.85 189.85 56 186 56Z" fill="black"/>
<path d="M186 1.12C187.559 1.12 189.055 1.7395 190.158 2.84221C191.26 3.94493 191.88 5.44053 191.88 7V49C191.88 50.5595 191.26 52.0551 190.158 53.1578C189.055 54.2605 187.559 54.88 186 54.88H11C9.44053 54.88 7.94493 54.2605 6.84221 53.1578C5.7395 52.0551 5.12 50.5595 5.12 49V7C5.12 5.44053 5.7395 3.94493 6.84221 2.84221C7.94493 1.7395 9.44053 1.12 11 1.12H186ZM186 0H11C7.15 0 4 3.15 4 7V49C4 52.85 7.15 56 11 56H186C189.85 56 193 52.85 193 49V7C193 3.15 189.85 0 186 0Z" fill="white"/>
<path d="M70.3879 14.3358C70.3879 15.5118 70.0379 16.4498 69.3379 17.1358C68.5539 17.9618 67.5319 18.3818 66.2579 18.3818C65.0399 18.3818 64.0039 17.9618 63.1639 17.1218C62.3239 16.2818 61.9039 15.2318 61.9039 13.9998C61.9039 12.7678 62.3239 11.7178 63.1639 10.8778C64.0039 10.0378 65.0399 9.60376 66.2579 9.60376C66.8739 9.60376 67.4619 9.71576 68.0079 9.92576C68.5539 10.1498 69.0019 10.4578 69.3519 10.8498L68.5819 11.6198C68.3299 11.3118 67.9939 11.0598 67.5739 10.8918C67.159 10.7112 66.7105 10.6205 66.2579 10.6258C65.3479 10.6258 64.5639 10.9478 63.9339 11.5778C63.3039 12.2218 62.9959 13.0198 62.9959 13.9858C62.9959 14.9518 63.3039 15.7498 63.9339 16.3938C64.5639 17.0238 65.3339 17.3458 66.2579 17.3458C67.0979 17.3458 67.7839 17.1078 68.3439 16.6458C68.9039 16.1838 69.2259 15.5258 69.3099 14.7138H66.2579V13.7058H70.3319C70.3599 13.9298 70.3879 14.1398 70.3879 14.3358ZM76.8419 9.79976V10.8358H73.0199V13.4958H76.4639V14.5038H73.0199V17.1638H76.8419V18.1998H71.9419V9.79976H76.8419ZM81.3919 10.8358V18.1998H80.3139V10.8358H77.9619V9.79976H83.7299V10.8358H81.3919ZM88.9939 18.1998H87.9159V9.79976H88.9939V18.1998ZM93.7819 10.8358V18.1998H92.7039V10.8358H90.3519V9.79976H96.1199V10.8358H93.7819ZM108.286 13.9998C108.286 15.2458 107.866 16.2818 107.04 17.1218C106.2 17.9618 105.178 18.3818 103.96 18.3818C102.742 18.3818 101.72 17.9618 100.88 17.1218C100.054 16.2818 99.6339 15.2458 99.6339 13.9998C99.6339 12.7538 100.054 11.7178 100.88 10.8778C101.706 10.0378 102.728 9.60376 103.96 9.60376C105.178 9.60376 106.2 10.0238 107.04 10.8778C107.88 11.7318 108.286 12.7678 108.286 13.9998ZM100.754 13.9998C100.754 14.9658 101.062 15.7778 101.664 16.4078C102.28 17.0378 103.05 17.3598 103.96 17.3598C104.87 17.3598 105.64 17.0378 106.242 16.4078C106.858 15.7778 107.166 14.9798 107.166 13.9998C107.166 13.0198 106.858 12.2218 106.242 11.5918C105.626 10.9618 104.87 10.6398 103.96 10.6398C103.05 10.6398 102.28 10.9618 101.664 11.5918C101.062 12.2218 100.754 13.0338 100.754 13.9998ZM110.876 18.1998H109.798V9.79976H111.114L115.202 16.3378H115.244L115.202 14.7138V9.79976H116.28V18.1998H115.16L110.89 11.3538H110.848L110.89 12.9778V18.1998H110.876Z" fill="white" stroke="white" stroke-width="0.5" stroke-miterlimit="10"/>
<path d="M99.3958 30.4499C96.1058 30.4499 93.4178 32.9559 93.4178 36.3999C93.4178 39.8299 96.1058 42.3499 99.3958 42.3499C102.686 42.3499 105.374 39.8299 105.374 36.3999C105.374 32.9559 102.686 30.4499 99.3958 30.4499ZM99.3958 40.0119C97.5898 40.0119 96.0358 38.5279 96.0358 36.3999C96.0358 34.2579 97.5898 32.7879 99.3958 32.7879C101.202 32.7879 102.756 34.2579 102.756 36.3999C102.756 38.5279 101.188 40.0119 99.3958 40.0119ZM86.3478 30.4499C83.0578 30.4499 80.3698 32.9559 80.3698 36.3999C80.3698 39.8299 83.0578 42.3499 86.3478 42.3499C89.6378 42.3499 92.3258 39.8299 92.3258 36.3999C92.3258 32.9559 89.6378 30.4499 86.3478 30.4499ZM86.3478 40.0119C84.5418 40.0119 82.9878 38.5279 82.9878 36.3999C82.9878 34.2579 84.5418 32.7879 86.3478 32.7879C88.1538 32.7879 89.7078 34.2579 89.7078 36.3999C89.7078 38.5279 88.1538 40.0119 86.3478 40.0119ZM70.8358 32.2839V34.8039H76.8838C76.7018 36.2179 76.2258 37.2679 75.5118 37.9819C74.6298 38.8639 73.2578 39.8299 70.8498 39.8299C67.1258 39.8299 64.2138 36.8339 64.2138 33.1099C64.2138 29.3859 67.1258 26.3899 70.8498 26.3899C72.8518 26.3899 74.3218 27.1739 75.3998 28.1959L77.1778 26.4179C75.6658 24.9759 73.6638 23.8699 70.8358 23.8699C65.7398 23.8699 61.4558 28.0139 61.4558 33.1239C61.4558 38.2199 65.7398 42.3779 70.8358 42.3779C73.5938 42.3779 75.6658 41.4819 77.2898 39.7879C78.9558 38.1219 79.4738 35.7699 79.4738 33.8799C79.4738 33.2919 79.4318 32.7459 79.3338 32.2979H70.8358V32.2839ZM134.27 34.2439C133.78 32.9139 132.268 30.4499 129.174 30.4499C126.108 30.4499 123.56 32.8579 123.56 36.3999C123.56 39.7319 126.08 42.3499 129.468 42.3499C132.198 42.3499 133.78 40.6839 134.424 39.7179L132.394 38.3599C131.722 39.3539 130.798 40.0119 129.468 40.0119C128.138 40.0119 127.186 39.4099 126.584 38.2059L134.55 34.9159L134.27 34.2439ZM126.15 36.2319C126.08 33.9359 127.928 32.7599 129.258 32.7599C130.294 32.7599 131.176 33.2779 131.47 34.0199L126.15 36.2319ZM119.682 41.9999H122.3V24.4999H119.682V41.9999ZM115.398 31.7799H115.3C114.712 31.0799 113.592 30.4499 112.164 30.4499C109.182 30.4499 106.452 33.0679 106.452 36.4279C106.452 39.7599 109.182 42.3639 112.164 42.3639C113.578 42.3639 114.712 41.7339 115.3 41.0059H115.384V41.8599C115.384 44.1419 114.166 45.3599 112.206 45.3599C110.61 45.3599 109.616 44.2119 109.21 43.2459L106.928 44.1979C107.586 45.7799 109.322 47.7119 112.206 47.7119C115.272 47.7119 117.862 45.9059 117.862 41.5099V30.8139H115.384V31.7799H115.398ZM112.388 40.0119C110.582 40.0119 109.07 38.4999 109.07 36.4279C109.07 34.3279 110.582 32.8019 112.388 32.8019C114.166 32.8019 115.566 34.3419 115.566 36.4279C115.58 38.4999 114.18 40.0119 112.388 40.0119ZM146.534 24.4999H140.276V41.9999H142.894V35.3639H146.548C149.446 35.3639 152.288 33.2639 152.288 29.9319C152.274 26.5999 149.418 24.4999 146.534 24.4999ZM146.59 32.9279H142.88V26.9219H146.59C148.55 26.9219 149.656 28.5459 149.656 29.9179C149.656 31.2899 148.55 32.9279 146.59 32.9279ZM162.746 30.4219C160.856 30.4219 158.896 31.2619 158.084 33.0959L160.408 34.0619C160.898 33.0959 161.822 32.7739 162.788 32.7739C164.132 32.7739 165.518 33.5859 165.532 35.0279V35.2099C165.056 34.9439 164.048 34.5379 162.802 34.5379C160.296 34.5379 157.762 35.9099 157.762 38.4719C157.762 40.8099 159.806 42.3219 162.102 42.3219C163.852 42.3219 164.832 41.5379 165.434 40.6139H165.518V41.9579H168.038V35.2519C168.052 32.1579 165.728 30.4219 162.746 30.4219ZM162.424 40.0119C161.57 40.0119 160.38 39.5779 160.38 38.5279C160.38 37.1839 161.864 36.6659 163.152 36.6659C164.3 36.6659 164.846 36.9179 165.532 37.2539C165.435 38.0116 165.066 38.7085 164.495 39.2156C163.924 39.7227 163.188 40.0056 162.424 40.0119ZM177.236 30.7999L174.24 38.3879H174.156L171.048 30.7999H168.234L172.896 41.4119L170.236 47.3059H172.966L180.148 30.7999H177.236ZM153.716 41.9999H156.334V24.4999H153.716V41.9999Z" fill="white"/>
<path d="M18.098 12.9919C18.014 13.3279 17.958 13.6639 17.958 14.0279V41.9859C17.958 42.3499 18 42.6859 18.098 43.0219L33.512 27.6079L18.098 12.9919Z" fill="#4285F4"/>
<path d="M33.008 27.188L18.098 43.008V43.022C18.2594 43.6213 18.557 44.1752 18.9677 44.6404C19.3784 45.1057 19.8911 45.4698 20.4657 45.7043C21.0403 45.9387 21.6614 46.0372 22.2804 45.9921C22.8993 45.9469 23.4995 45.7593 24.034 45.444L24.076 45.416L40.848 35.742L33.008 27.188Z" fill="#EA4335"/>
<path d="M48.086 24.4999L48.072 24.4859L40.834 20.2859L32.672 27.5519L40.862 35.7419L48.072 31.5839C48.7097 31.2387 49.2426 30.7278 49.6143 30.1052C49.9861 29.4826 50.1831 28.7712 50.1845 28.0461C50.186 27.3209 49.9918 26.6087 49.6225 25.9846C49.2532 25.3606 48.7224 24.8476 48.086 24.4999Z" fill="#FBBC04"/>
<path d="M33.12 27.9999L40.834 20.2859L24.076 10.5699C23.5403 10.2496 22.9377 10.0576 22.3155 10.009C21.6932 9.96037 21.0681 10.0564 20.4891 10.2896C19.9102 10.5229 19.393 10.8869 18.9782 11.3533C18.5634 11.8197 18.2621 12.3757 18.098 12.9779L33.12 27.9999Z" fill="#34A853"/>
</g>
<defs>
<filter id="filter0_d_6_326" x="0" y="0" width="197" height="64" filterUnits="userSpaceOnUse" color-interpolation-filters="sRGB">
<feFlood flood-opacity="0" result="BackgroundImageFix"/>
<feColorMatrix in="SourceAlpha" type="matrix" values="0 0 0 0 0 0 0 0 0 0 0 0 0 0 0 0 0 0 127 0" result="hardAlpha"/>
<feOffset dy="4"/>
<feGaussianBlur stdDeviation="2"/>
<feComposite in2="hardAlpha" operator="out"/>
<feColorMatrix type="matrix" values="0 0 0 0 0 0 0 0 0 0 0 0 0 0 0 0 0 0 0.25 0"/>
<feBlend mode="normal" in2="BackgroundImageFix" result="effect1_dropShadow_6_326"/>
<feBlend mode="normal" in="SourceGraphic" in2="effect1_dropShadow_6_326" result="shape"/>
</filter>
</defs>
</svg>
